<?xml version="1.0" standalone="no"?><!DOCTYPE svg PUBLIC "-//W3C//DTD SVG 1.1//EN" "http://www.w3.org/Graphics/SVG/1.1/DTD/svg11.dtd"><svg height="1024" node-id="1" sillyvg="true" template-height="1024" template-width="1024" version="1.1" viewBox="0 0 1024 1024" width="1024" xmlns="http://www.w3.org/2000/svg" xmlns:xlink="http://www.w3.org/1999/xlink"><defs node-id="151"></defs><g node-id="450"><path d="M 249.89 168.71 C 251.89 166.52 251.69 161.82 250.89 159.28 C 247.99 150.03 242.46 142.53 229.47 142.53 L 228.12 142.53 C 228.02 133.01 219.42 128.81 213.95 125.90 C 199.54 118.24 179.23 112.09 162.70 116.34 C 132.46 124.13 126.05 144.00 124.48 144.00 C 112.73 144.00 100.68 154.94 100.68 165.14 C 100.68 166.51 100.85 167.88 101.20 169.21 C 101.03 169.21 80.20 176.67 82.83 194.05 C 84.75 206.89 91.68 216.05 113.83 216.05 L 250.79 216.05 C 262.72 216.05 270.60 202.18 270.60 192.31 C 270.67 180.33 261.77 170.20 249.89 168.71 Z" fill="#d4e2ff" fill-rule="nonzero" group-id="1" node-id="156" stroke="none" target-height="103.96002" target-width="190.46754" target-x="80.2" target-y="112.09"></path><path d="M 455.73 776.60 L 455.73 865.46 L 491.50 865.46 L 491.50 831.93 C 491.33 824.23 495.34 817.05 501.98 813.15 C 508.62 809.25 516.85 809.25 523.49 813.15 C 530.13 817.05 534.14 824.23 533.97 831.93 L 533.97 865.46 L 569.74 865.46 L 569.74 776.60 Z" fill="#2d4c7f" fill-rule="nonzero" group-id="1" node-id="158" stroke="none" target-height="88.86011" target-width="114.00998" target-x="455.73" target-y="776.6"></path><path d="M 338.92 859.88 L 686.55 859.88 L 686.55 883.35 L 338.92 883.35 Z" fill="#203c79" fill-rule="nonzero" group-id="1" node-id="160" stroke="none" target-height="23.46997" target-width="347.63004" target-x="338.92" target-y="859.88"></path><path d="M 104.93 335.11 L 920.53 335.11 L 920.53 791.57 L 104.93 791.57 Z" fill="#203c79" fill-rule="nonzero" group-id="1" node-id="162" stroke="none" target-height="456.45996" target-width="815.6" target-x="104.93" target-y="335.11"></path><path d="M 130.58 351.14 L 894.89 351.14 L 894.89 745.36 L 130.58 745.36 Z" fill="#ebf3ff" fill-rule="nonzero" group-id="1" node-id="164" stroke="none" target-height="394.21997" target-width="764.30994" target-x="130.58" target-y="351.14"></path><g node-id="451"><path d="M 839.48 745.36 C 809.20 738.06 780.31 726.27 752.11 713.21 C 723.91 700.15 695.40 686.94 667.54 672.93 C 518.08 597.81 385.24 485.87 282.41 353.46 L 130.58 353.46 L 130.58 747.68 L 849.81 747.68 C 846.36 747.00 842.91 746.19 839.48 745.36 Z" fill="#d9eaff" fill-opacity="0.5" fill-rule="nonzero" group-id="1,2" node-id="168" stroke="none" target-height="394.22" target-width="719.23" target-x="130.58" target-y="353.46"></path></g><path d="M 130.08 745.36 L 895.39 745.36 L 895.39 752.57 L 130.08 752.57 Z" fill="#395289" fill-rule="nonzero" group-id="1" node-id="171" stroke="none" target-height="7.210083" target-width="765.31" target-x="130.08" target-y="745.36"></path><path d="M 504.09 304.00 L 506.09 304.00 L 506.09 532.00 L 504.09 532.00 Z" fill="#203c79" fill-rule="nonzero" group-id="1" node-id="173" stroke="none" target-height="228" target-width="2" target-x="504.09" target-y="304"></path><path d="M 505.09 306.00 C 501.64 306.09 498.48 304.07 497.11 300.91 C 495.73 297.75 496.40 294.07 498.81 291.60 C 501.22 289.13 504.89 288.37 508.08 289.67 C 511.28 290.97 513.36 294.08 513.36 297.53 C 513.39 299.75 512.53 301.89 510.98 303.48 C 509.43 305.07 507.31 305.97 505.09 306.00 Z M 505.09 291.05 C 502.45 290.96 500.03 292.49 498.96 294.90 C 497.89 297.31 498.39 300.14 500.22 302.03 C 502.06 303.93 504.86 304.52 507.31 303.53 C 509.76 302.54 511.36 300.17 511.36 297.53 C 511.40 295.83 510.76 294.19 509.58 292.96 C 508.41 291.73 506.79 291.03 505.09 291.00 Z" fill="#203c79" fill-rule="nonzero" group-id="1" node-id="175" stroke="none" target-height="17.71762" target-width="17.65866" target-x="495.728" target-y="288.3678"></path><path d="M 225.13 643.98 L 427.62 643.98 L 427.62 645.98 L 225.13 645.98 Z" fill="#5d81ec" fill-rule="nonzero" group-id="1" node-id="177" stroke="none" target-height="2" target-width="202.48999" target-x="225.13" target-y="643.98"></path><path d="M 408.27 580.23 L 451.60 580.23 L 451.60 582.23 L 408.27 582.23 Z" fill="#203c79" fill-rule="nonzero" group-id="1" node-id="179" stroke="none" target-height="2" target-width="43.329987" target-x="408.27" target-y="580.23"></path><path d="M 618.30 577.91 L 650.75 577.91 L 650.75 579.91 L 618.30 579.91 Z" fill="#203c79" fill-rule="nonzero" group-id="1" node-id="181" stroke="none" target-height="2" target-width="32.450012" target-x="618.3" target-y="577.91"></path><path d="M 215.80 653.25 C 210.10 653.25 205.46 649.54 205.46 644.98 C 205.46 640.42 210.10 636.72 215.80 636.72 C 221.50 636.72 226.13 640.43 226.13 644.98 C 226.13 649.53 221.50 653.25 215.80 653.25 Z M 215.80 638.72 C 211.20 638.72 207.46 641.53 207.46 644.98 C 207.46 648.43 211.20 651.25 215.80 651.25 C 220.40 651.25 224.13 648.44 224.13 644.98 C 224.13 641.52 220.39 638.72 215.80 638.72 Z" fill="#5d81ec" fill-rule="nonzero" group-id="1" node-id="183" stroke="none" target-height="16.53003" target-width="20.669998" target-x="205.46" target-y="636.72"></path><path d="M 614.60 643.98 L 801.75 643.98 L 801.75 645.98 L 614.60 645.98 Z" fill="#5d81ec" fill-rule="nonzero" group-id="1" node-id="185" stroke="none" target-height="2" target-width="187.15002" target-x="614.6" target-y="643.98"></path><path d="M 810.38 653.25 C 805.07 653.25 800.75 649.54 800.75 644.98 C 800.75 640.42 805.07 636.72 810.38 636.72 C 815.69 636.72 820.00 640.43 820.00 645.00 C 820.00 649.57 815.68 653.25 810.38 653.25 Z M 810.38 638.72 C 806.17 638.72 802.75 641.53 802.75 644.98 C 802.75 648.43 806.17 651.25 810.38 651.25 C 814.59 651.25 818.00 648.44 818.00 645.00 C 818.00 641.56 814.58 638.72 810.38 638.72 Z" fill="#5d81ec" fill-rule="nonzero" group-id="1" node-id="187" stroke="none" target-height="16.53003" target-width="19.25" target-x="800.75" target-y="636.72"></path><path d="M 410.34 580.43 L 408.34 580.43 L 408.34 483.63 L 363.51 483.63 L 363.51 481.63 L 410.34 481.63 L 410.34 580.43 Z" fill="#203c79" fill-rule="nonzero" group-id="1" node-id="189" stroke="none" target-height="98.79999" target-width="46.829987" target-x="363.51" target-y="481.63"></path><path d="M 357.54 490.89 C 352.97 490.89 349.27 487.19 349.27 482.62 C 349.27 478.05 352.97 474.35 357.54 474.35 C 362.11 474.35 365.81 478.05 365.81 482.62 C 365.80 487.19 362.11 490.88 357.54 490.89 Z M 357.54 476.36 C 355.00 476.36 352.72 477.89 351.75 480.23 C 350.78 482.58 351.31 485.27 353.11 487.07 C 354.91 488.86 357.60 489.39 359.95 488.42 C 362.29 487.45 363.81 485.16 363.81 482.62 C 363.80 479.16 361.00 476.36 357.54 476.36 Z" fill="#203c79" fill-rule="nonzero" group-id="1" node-id="191" stroke="none" target-height="16.539978" target-width="16.540009" target-x="349.27" target-y="474.35"></path><path d="M 651.15 580.42 L 649.15 580.42 L 649.15 424.61 L 731.60 424.61 L 731.60 426.61 L 651.15 426.61 L 651.15 580.42 Z" fill="#203c79" fill-rule="nonzero" group-id="1" node-id="193" stroke="none" target-height="155.81" target-width="82.44995" target-x="649.15" target-y="424.61"></path><path d="M 737.52 434.43 C 734.17 434.43 731.16 432.41 729.88 429.32 C 728.60 426.23 729.31 422.67 731.68 420.31 C 734.04 417.94 737.60 417.24 740.69 418.52 C 743.78 419.81 745.79 422.82 745.79 426.17 C 745.79 428.36 744.92 430.46 743.37 432.01 C 741.82 433.56 739.71 434.43 737.52 434.43 Z M 737.52 419.90 C 734.06 419.90 731.25 422.71 731.25 426.17 C 731.25 429.63 734.06 432.44 737.52 432.44 C 740.98 432.44 743.79 429.63 743.79 426.17 C 743.79 422.71 740.98 419.90 737.52 419.90 Z" fill="#203c79" fill-rule="nonzero" group-id="1" node-id="195" stroke="none" target-height="17.19345" target-width="17.194885" target-x="728.5991" target-y="417.2392"></path><path d="M 382.62 105.92 L 613.00 105.92 L 613.00 277.15 L 382.62 277.15 Z" fill="#ffffff" fill-rule="nonzero" group-id="1" node-id="197" stroke="none" target-height="171.23" target-width="230.38004" target-x="382.61996" target-y="105.92"></path><path d="M 382.62 99.02 L 613.01 99.02 L 613.01 138.46 L 382.62 138.46 Z" fill="#244baa" fill-rule="nonzero" group-id="1" node-id="199" stroke="none" target-height="39.439987" target-width="230.39005" target-x="382.61996" target-y="99.020004"></path><path d="M 407.77 116.32 C 407.77 119.38 405.29 121.86 402.23 121.86 C 399.17 121.86 396.69 119.38 396.69 116.32 C 396.69 113.26 399.17 110.78 402.23 110.78 C 403.70 110.78 405.11 111.36 406.15 112.40 C 407.19 113.44 407.77 114.85 407.77 116.32 Z" fill="#ffffff" fill-rule="nonzero" group-id="1" node-id="201" stroke="none" target-height="11.0826645" target-width="11.082672" target-x="396.69003" target-y="110.777336"></path><path d="M 435.44 116.32 C 435.44 118.56 434.09 120.58 432.02 121.44 C 429.95 122.30 427.56 121.82 425.98 120.23 C 424.40 118.65 423.92 116.26 424.78 114.19 C 425.65 112.12 427.67 110.78 429.91 110.78 C 431.38 110.78 432.79 111.36 433.82 112.40 C 434.86 113.44 435.44 114.85 435.44 116.32 Z" fill="#ffffff" fill-rule="nonzero" group-id="1" node-id="203" stroke="none" target-height="11.520195" target-width="11.518707" target-x="423.92395" target-y="110.77595"></path><path d="M 463.12 116.32 C 463.12 119.38 460.64 121.86 457.58 121.86 C 454.52 121.86 452.04 119.38 452.04 116.32 C 452.04 113.26 454.52 110.78 457.58 110.78 C 459.05 110.78 460.46 111.36 461.50 112.40 C 462.54 113.44 463.12 114.85 463.12 116.32 Z" fill="#ffffff" fill-rule="nonzero" group-id="1" node-id="205" stroke="none" target-height="11.0826645" target-width="11.082642" target-x="452.04" target-y="110.777336"></path><path d="M 416.76 209.31 L 442.41 209.31 L 442.41 263.00 L 416.76 263.00 Z" fill="#9ec0ff" fill-rule="nonzero" group-id="1" node-id="207" stroke="none" target-height="53.690002" target-width="25.649963" target-x="416.76" target-y="209.31"></path><path d="M 455.24 181.68 L 481.69 181.68 L 481.69 262.99 L 455.24 262.99 Z" fill="#8cb0ea" fill-rule="nonzero" group-id="1" node-id="209" stroke="none" target-height="81.31001" target-width="26.449982" target-x="455.24002" target-y="181.67998"></path><path d="M 500.13 162.40 L 528.99 162.40 L 528.99 263.00 L 500.13 263.00 Z" fill="#2e6adb" fill-rule="nonzero" group-id="1" node-id="211" stroke="none" target-height="100.600006" target-width="28.859985" target-x="500.13" target-y="162.4"></path><path d="M 548.23 146.76 L 583.50 146.76 L 583.50 262.99 L 548.23 262.99 Z" fill="#5d81ec" fill-rule="nonzero" group-id="1" node-id="213" stroke="none" target-height="116.229996" target-width="35.27002" target-x="548.23" target-y="146.76"></path><path d="M 400.35 150.91 L 401.35 150.91 L 401.35 262.99 L 400.35 262.99 Z" fill="#5d81ec" fill-rule="nonzero" group-id="1" node-id="215" stroke="none" target-height="112.07999" target-width="1" target-x="400.35" target-y="150.91"></path><path d="M 400.85 262.49 L 585.58 262.49 L 585.58 263.49 L 400.85 263.49 Z" fill="#5d81ec" fill-rule="nonzero" group-id="1" node-id="217" stroke="none" target-height="1" target-width="184.73001" target-x="400.85" target-y="262.49"></path><g node-id="452"><path d="M 580.73 273.68 C 557.11 262.39 536.05 243.49 517.98 224.82 C 483.44 189.12 451.54 148.67 441.37 99.00 L 382.62 99.00 L 382.62 277.15 L 589.35 277.15 C 586.41 276.17 583.53 275.01 580.73 273.68 Z" fill="#9ec0ff" fill-opacity="0.5" fill-rule="nonzero" group-id="1,3" node-id="221" stroke="none" target-height="178.15" target-width="206.73001" target-x="382.61996" target-y="99"></path></g><path d="M 301.70 315.00 C 304.31 333.57 295.47 351.88 279.32 361.40 C 263.16 370.91 242.86 369.76 227.89 358.47 C 212.91 347.18 206.21 327.99 210.91 309.83 C 215.61 291.68 230.78 278.15 249.35 275.54 C 261.52 273.83 273.88 277.03 283.70 284.43 C 293.52 291.83 299.99 302.82 301.70 315.00 Z" fill="#203c79" fill-rule="nonzero" group-id="1" node-id="224" stroke="none" target-height="97.08414" target-width="98.09775" target-x="206.2113" target-y="273.82925"></path><path d="M 289.67 336.67 C 276.67 335.47 263.74 329.54 253.44 321.67 C 241.75 312.67 228.81 297.02 231.12 282.28 C 213.64 293.27 205.53 314.50 211.24 334.35 C 216.95 354.19 235.10 367.87 255.75 367.89 C 276.40 367.91 294.57 354.27 300.32 334.43 C 296.86 335.87 293.16 337.00 289.67 336.67 Z" fill="#406cdb" fill-rule="nonzero" group-id="1" node-id="226" stroke="none" target-height="85.62967" target-width="94.79176" target-x="205.52824" target-y="282.28"></path><path d="M 254.37 319.49 L 277.73 375.10 L 310.13 341.92 L 254.37 319.49 Z" fill="#ffffff" fill-rule="nonzero" group-id="1" node-id="228" stroke="none" target-height="55.610016" target-width="55.76001" target-x="254.37" target-y="319.49"></path><path d="M 255.77 356.76 C 236.74 356.78 221.12 341.72 220.44 322.71 C 219.76 303.69 234.26 287.56 253.24 286.21 C 272.22 284.86 288.85 298.79 290.86 317.71 C 292.87 336.63 279.54 353.74 260.70 356.41 C 259.07 356.64 257.42 356.76 255.77 356.76 Z M 255.87 287.21 C 241.57 287.18 228.75 296.03 223.71 309.42 C 218.68 322.81 222.49 337.92 233.28 347.32 C 244.06 356.71 259.55 358.43 272.12 351.61 C 284.70 344.79 291.72 330.89 289.73 316.72 L 289.73 316.72 C 287.35 299.83 272.92 287.26 255.87 287.21 Z" fill="#ffffff" fill-rule="nonzero" group-id="1" node-id="230" stroke="none" target-height="73.56369" target-width="74.192184" target-x="218.68071" target-y="284.8614"></path><path d="M 859.60 607.03 L 1007.34 607.03 L 1007.34 700.87 L 859.60 700.87 Z" fill="#ffffff" fill-rule="nonzero" group-id="1" node-id="232" stroke="none" target-height="93.839966" target-width="147.73993" target-x="859.6" target-y="607.03"></path><path d="M 935.26 658.83 L 859.32 607.44 C 859.13 607.27 859.09 606.99 859.24 606.78 C 859.38 606.57 859.66 606.50 859.88 606.62 L 935.24 657.62 L 1007.06 606.62 C 1007.29 606.46 1007.60 606.51 1007.76 606.74 C 1007.92 606.97 1007.87 607.28 1007.64 607.44 Z" fill="#5d81ec" fill-rule="nonzero" group-id="1" node-id="234" stroke="none" target-height="52.37018" target-width="148.82703" target-x="859.09314" target-y="606.45984"></path><g node-id="453"><path d="M 914.14 607.00 L 859.60 607.00 L 859.60 700.84 L 1007.35 700.84 L 1007.35 683.48 C 968.28 675.34 932.76 640.65 914.14 607.00 Z" fill="#9ec0ff" fill-opacity="0.5" fill-rule="nonzero" group-id="1,4" node-id="238" stroke="none" target-height="93.84003" target-width="147.75" target-x="859.6" target-y="607"></path></g><path d="M 865.73 925.66 C 865.59 936.19 831.32 944.26 789.20 943.66 C 747.08 943.06 713.04 934.07 713.20 923.54 C 713.36 913.01 747.61 904.94 789.74 905.54 C 831.87 906.14 865.87 915.13 865.73 925.66 Z" fill="#b8d0ff" fill-rule="nonzero" group-id="1" node-id="241" stroke="none" target-height="39.319946" target-width="152.83002" target-x="713.04" target-y="904.94"></path><path d="M 789.00 533.75 C 771.33 548.85 752.86 562.99 733.67 576.10 C 725.19 561.17 717.98 545.56 712.11 529.42 L 699.58 535.81 C 701.96 552.78 706.95 569.28 714.37 584.72 C 716.52 589.18 719.04 593.72 723.14 596.28 C 731.28 601.28 741.53 596.51 749.81 591.72 L 776.37 576.36 C 777.77 575.66 779.02 574.70 780.06 573.54 C 781.49 571.75 781.88 569.32 782.22 567.01 C 783.82 556.31 785.42 545.61 789.00 533.75" fill="#ffcdab" fill-rule="nonzero" group-id="1" node-id="243" stroke="none" target-height="71.86005" target-width="89.41998" target-x="699.58" target-y="529.42"></path><path d="M 791.05 531.00 C 778.09 537.87 766.27 546.69 756.00 557.15 C 754.89 558.28 753.72 559.59 753.69 561.15 C 753.76 562.25 754.10 563.31 754.69 564.24 L 764.40 583.00 C 764.55 583.57 764.98 584.03 765.54 584.23 C 766.10 584.43 766.72 584.34 767.20 584.00 C 777.50 580.13 788.48 575.74 794.54 566.56 C 798.37 560.77 799.75 553.72 800.48 546.83 C 800.91 542.78 801.09 538.42 798.99 534.92 C 796.89 531.42 791.69 529.56 791.05 530.99" fill="#ffbf00" fill-rule="nonzero" group-id="1" node-id="245" stroke="none" target-height="54.871643" target-width="47.400085" target-x="753.68994" target-y="529.56"></path><path d="M 714.20 535.00 C 713.01 530.68 711.52 524.27 712.37 520.73 C 712.94 518.36 713.37 514.03 712.37 511.92 C 712.11 511.38 711.37 510.85 710.79 511.24 C 710.45 511.54 710.28 512.01 710.36 512.46 C 710.36 514.16 708.78 520.88 708.87 519.31 C 706.92 515.84 705.40 512.15 704.34 508.31 C 704.18 507.54 703.86 506.82 703.40 506.19 C 702.87 505.59 701.63 504.87 701.04 505.53 C 700.29 506.37 702.73 513.25 703.58 517.11 L 699.69 507.99 C 699.38 507.24 698.43 506.34 697.69 506.99 C 696.69 507.83 699.53 515.07 700.45 519.11 L 696.45 510.61 C 695.91 509.47 694.29 507.61 693.85 508.90 C 693.05 511.22 696.01 516.90 697.48 521.12 C 696.45 519.41 695.42 517.70 694.37 515.99 C 694.03 515.43 693.20 514.83 692.64 515.35 C 692.41 515.63 692.35 516.01 692.48 516.35 C 694.17 523.73 696.81 529.24 699.75 537.16 C 703.84 534.83 710.67 538.37 714.18 535.06" fill="#ffcdab" fill-rule="nonzero" group-id="1" node-id="247" stroke="none" target-height="33.49997" target-width="21.851929" target-x="692.3481" target-y="504.87003"></path><path d="M 747.29 899.75 C 742.85 906.54 734.09 908.75 728.49 914.55 C 728.07 914.94 727.74 915.43 727.55 915.98 C 727.34 917.25 728.08 918.49 729.30 918.90 C 730.48 919.23 731.73 919.26 732.93 918.97 L 753.44 915.86 C 754.19 915.80 754.92 915.59 755.59 915.24 C 756.99 914.39 757.44 912.56 757.77 910.93 C 758.77 906.01 759.77 901.09 760.77 896.17 C 756.14 896.75 751.61 897.95 747.30 899.75" fill="#132444" fill-rule="nonzero" group-id="1" node-id="249" stroke="none" target-height="23.087585" target-width="33.43457" target-x="727.3354" target-y="896.17"></path><path d="M 763.45 907.91 L 765.35 907.91 C 772.22 871.30 764.53 831.11 774.35 794.91 C 777.35 783.70 782.03 773.14 786.18 762.39 C 799.72 727.16 808.03 690.13 810.84 652.49 C 797.21 649.23 783.58 645.96 770.27 639.67 C 745.51 724.48 737.77 814.51 737.42 903.99 C 745.95 906.19 754.68 907.53 763.48 907.99" fill="#5d81ec" fill-rule="nonzero" group-id="1" node-id="251" stroke="none" target-height="268.32" target-width="73.420105" target-x="737.42" target-y="639.67"></path><g node-id="454"><path d="M 792.36 705.05 C 781.61 722.59 775.86 743.16 769.45 762.78 C 754.08 809.78 754.29 860.42 755.19 907.20 C 757.94 907.51 760.69 907.77 763.45 907.91 L 765.35 907.91 C 772.22 871.30 764.53 831.11 774.35 794.91 C 777.35 783.70 782.03 773.14 786.18 762.39 C 794.89 739.76 801.44 716.35 805.72 692.48 C 800.15 695.29 795.50 699.66 792.36 705.05 Z" fill="#5d81ec" fill-opacity="0.4" fill-rule="nonzero" group-id="1,5" node-id="255" stroke="none" target-height="215.42993" target-width="51.639954" target-x="754.08" target-y="692.48"></path></g><path d="M 847.74 917.56 C 843.30 924.35 834.53 926.56 828.94 932.37 C 828.51 932.76 828.19 933.25 828.00 933.79 C 827.79 935.06 828.53 936.30 829.75 936.71 C 830.93 937.05 832.18 937.07 833.38 936.79 L 853.89 933.67 C 854.64 933.61 855.37 933.40 856.04 933.05 C 857.43 932.20 857.89 930.38 858.22 928.74 C 859.22 923.82 860.22 918.90 861.22 913.98 C 856.59 914.56 852.06 915.77 847.75 917.56" fill="#132444" fill-rule="nonzero" group-id="1" node-id="258" stroke="none" target-height="23.09436" target-width="33.430176" target-x="827.7898" target-y="913.98"></path><path d="M 785.47 646.15 C 789.76 664.15 804.02 745.62 806.70 757.38 C 808.92 767.07 813.03 776.16 816.29 785.52 C 819.17 793.78 821.40 802.26 823.55 810.75 C 832.55 846.31 840.29 882.37 842.94 919.02 C 850.74 917.30 858.77 916.86 866.71 917.72 C 871.10 876.46 872.99 834.38 864.95 793.72 C 861.36 775.55 855.81 757.72 853.68 739.36 C 851.07 716.82 853.68 693.74 849.35 671.48 C 849.08 669.31 848.30 667.24 847.09 665.43 C 845.34 663.20 842.52 662.26 839.86 661.43 C 821.86 655.89 803.66 650.81 785.47 646.14" fill="#5d81ec" fill-rule="nonzero" group-id="1" node-id="260" stroke="none" target-height="272.88" target-width="87.52008" target-x="785.4699" target-y="646.14"></path><path d="M 852.90 913.55 L 852.41 913.48 C 857.02 878.00 861.79 841.31 855.19 805.40 C 853.03 793.65 849.61 781.97 846.31 770.68 C 843.44 760.89 840.48 750.77 838.31 740.68 C 833.01 715.53 832.56 689.48 832.12 664.29 L 832.62 664.29 C 833.06 689.46 833.51 715.48 838.80 740.58 C 840.93 750.71 843.89 760.82 846.80 770.58 C 850.10 781.88 853.52 793.58 855.69 805.35 C 862.30 841.30 857.52 878.00 852.90 913.55 Z" fill="#132444" fill-rule="nonzero" group-id="1" node-id="262" stroke="none" target-height="249.26001" target-width="30.179993" target-x="832.12" target-y="664.29"></path><g node-id="455"><path d="M 853.68 739.35 C 851.40 719.68 853.06 699.60 850.68 680.02 C 843.68 695.67 841.73 711.65 843.68 729.33 C 846.92 758.39 857.12 786.10 859.81 815.25 C 861.87 837.68 863.09 860.83 860.25 883.25 C 858.82 894.64 856.16 914.80 842.87 918.25 L 842.93 919.00 C 850.73 917.28 858.76 916.84 866.70 917.70 C 871.09 876.44 872.98 834.36 864.94 793.70 C 861.36 775.54 855.81 757.76 853.68 739.35 Z" fill="#5d81ec" fill-opacity="0.3" fill-rule="nonzero" group-id="1,6" node-id="266" stroke="none" target-height="238.97998" target-width="31.25" target-x="841.73" target-y="680.02"></path></g><path d="M 792.63 531.20 C 800.97 526.67 810.56 530.77 819.93 532.34 C 835.18 534.90 851.02 537.69 863.64 546.63 C 866.62 548.31 868.33 551.59 868.00 555.00 C 869.14 577.93 854.72 598.76 851.50 621.49 C 850.50 628.44 850.59 635.49 850.66 642.49 C 850.76 651.04 850.86 659.59 850.95 668.14 C 823.78 660.14 796.45 652.78 768.95 646.06 C 771.01 610.34 779.62 575.37 788.18 540.64 C 789.25 536.29 791.34 531.99 792.73 531.23" fill="#ffbf00" fill-rule="nonzero" group-id="1" node-id="269" stroke="none" target-height="141.47003" target-width="100.19" target-x="768.95" target-y="526.67"></path><path d="M 868.00 555.00 C 868.32 551.62 866.63 548.37 863.69 546.68 C 862.37 545.75 861.02 544.90 859.63 544.09 C 856.56 546.62 853.70 549.41 851.10 552.42 C 846.43 557.81 843.28 564.25 840.78 570.88 C 835.68 584.38 833.28 598.71 828.68 612.36 C 827.76 615.57 826.35 618.63 824.51 621.42 C 822.67 624.16 819.56 625.78 816.26 625.72 C 812.79 625.48 809.68 623.60 807.06 621.44 C 804.22 619.13 801.54 616.61 799.06 613.91 C 796.54 611.11 794.35 608.08 792.00 605.15 C 790.92 603.80 789.57 602.73 788.56 601.28 C 787.65 599.80 786.87 598.24 786.21 596.63 C 784.54 593.16 784.09 589.10 783.73 585.31 C 783.39 581.26 783.39 577.19 783.73 573.14 C 784.31 565.32 785.37 557.54 786.88 549.85 C 788.21 543.07 790.19 536.37 794.10 530.60 C 793.63 530.80 793.17 531.01 792.71 531.25 C 791.32 532.01 789.23 536.31 788.16 540.66 C 779.60 575.39 770.99 610.36 768.93 646.08 C 796.45 652.75 823.78 660.11 850.93 668.16 L 850.64 642.51 C 850.57 635.51 850.49 628.44 851.48 621.51 C 854.70 598.78 869.12 577.95 867.98 555.02" fill="#ffa607" fill-rule="nonzero" group-id="1" node-id="271" stroke="none" target-height="137.56" target-width="100.19006" target-x="768.92993" target-y="530.6"></path><path d="M 816.74 615.00 C 808.35 608.41 803.18 601.80 800.93 594.79 C 799.87 591.07 799.20 587.26 798.93 583.40 C 798.49 579.25 798.04 574.96 796.57 571.01 L 797.04 570.84 C 798.53 574.84 799.04 579.17 799.42 583.35 C 799.70 587.17 800.37 590.95 801.42 594.63 C 803.63 601.55 808.75 608.08 817.06 614.63 Z" fill="#26395e" fill-rule="nonzero" group-id="1" node-id="273" stroke="none" target-height="44.159973" target-width="20.48999" target-x="796.57" target-y="570.84"></path><path d="M 821.73 594.29 C 816.30 590.72 812.10 584.50 809.91 576.77 C 807.91 569.84 807.65 562.55 807.38 555.50 L 807.88 555.50 C 808.15 562.50 808.44 569.78 810.39 576.65 C 812.55 584.27 816.68 590.39 822.01 593.89 Z" fill="#26395e" fill-rule="nonzero" group-id="1" node-id="275" stroke="none" target-height="38.789978" target-width="14.630005" target-x="807.38" target-y="555.5"></path><path d="M 809.33 666.67 C 810.94 669.72 811.27 673.29 810.25 676.59 C 809.22 679.89 806.93 682.65 803.87 684.25 L 803.87 684.25 C 800.82 685.86 797.25 686.19 793.95 685.17 C 790.65 684.15 787.90 681.86 786.29 678.80 L 695.12 505.71 C 693.51 502.66 693.18 499.09 694.20 495.79 C 695.22 492.49 697.51 489.74 700.57 488.13 L 700.57 488.13 C 703.62 486.52 707.19 486.18 710.49 487.20 C 713.79 488.22 716.54 490.51 718.15 493.57 Z" fill="#26395e" fill-rule="nonzero" group-id="1" node-id="277" stroke="none" target-height="200.01056" target-width="118.09613" target-x="693.17584" target-y="486.1836"></path><path d="M 701.37 540.16 L 778.00 685.57 C 781.83 693.16 789.46 698.09 797.96 698.47 C 806.45 698.85 814.49 694.62 818.98 687.40 C 823.48 680.18 823.72 671.09 819.63 663.64 L 743.00 518.23 Z" fill="#2d4c7f" fill-rule="nonzero" group-id="1" node-id="279" stroke="none" target-height="180.61993" target-width="122.35272" target-x="701.36993" target-y="518.23"></path><g node-id="456"><path d="M 821.86 675.51 C 810.36 681.56 796.13 677.16 790.07 665.66 L 719.07 530.85 L 701.38 540.16 L 778.00 685.57 C 782.98 695.04 793.73 699.96 804.16 697.53 C 814.58 695.10 822.05 685.94 822.33 675.24 Z" fill="#0093cc" fill-opacity="0.3" fill-rule="nonzero" group-id="1,7" node-id="283" stroke="none" target-height="169.11023" target-width="120.95001" target-x="701.38" target-y="530.85"></path></g><path d="M 754.83 393.75 C 779.50 436.33 764.98 490.85 722.40 515.52 C 679.82 540.20 625.30 525.68 600.62 483.10 C 575.95 440.51 590.47 385.99 633.05 361.32 C 653.50 349.47 677.82 346.23 700.66 352.31 C 723.50 358.39 742.98 373.30 754.83 393.75 Z" fill="#ffffff" fill-rule="nonzero" group-id="1" node-id="286" stroke="none" target-height="193.96606" target-width="203.5503" target-x="575.9508" target-y="346.2307"></path><path d="M 744.00 400.00 C 765.21 436.60 752.73 483.46 716.13 504.67 C 679.53 525.87 632.67 513.40 611.46 476.80 C 590.25 440.20 602.73 393.34 639.33 372.13 C 656.91 361.95 677.81 359.16 697.44 364.39 C 717.07 369.61 733.82 382.42 744.00 400.00 Z" fill="#2d4c7f" fill-rule="nonzero" group-id="1" node-id="288" stroke="none" target-height="166.71371" target-width="174.95142" target-x="590.2549" target-y="359.15982"></path><path d="M 739.50 402.40 C 759.34 436.66 747.66 480.51 713.40 500.36 C 679.15 520.20 635.29 508.53 615.44 474.28 C 595.59 440.03 607.25 396.17 641.50 376.31 C 657.95 366.77 677.53 364.16 695.90 369.05 C 714.28 373.95 729.97 385.94 739.50 402.40 Z" fill="#b8d0ff" fill-rule="nonzero" group-id="1" node-id="290" stroke="none" target-height="156.04297" target-width="163.75378" target-x="595.5857" target-y="364.16144"></path><g node-id="457"><path d="M 626.51 411.91 C 623.68 407.03 621.23 401.94 619.18 396.68 C 602.33 420.26 601.26 451.65 616.47 476.33 C 631.68 501.00 660.21 514.15 688.85 509.68 C 717.49 505.22 740.66 484.01 747.64 455.88 C 705.80 475.93 652.74 457.17 626.51 411.91 Z" fill="#ffffff" fill-opacity="0.4" fill-rule="nonzero" group-id="1,8" node-id="294" stroke="none" target-height="117.46973" target-width="146.38257" target-x="601.25745" target-y="396.68"></path></g><path d="M 639.94 440.56 L 643.22 441.40 C 645.29 441.91 646.81 443.66 647.01 445.78 C 647.15 447.37 647.38 448.95 647.70 450.51 C 648.13 452.58 647.17 454.70 645.33 455.74 L 642.41 457.41 C 641.37 457.99 640.61 458.97 640.31 460.13 C 640.01 461.28 640.19 462.50 640.81 463.52 L 646.35 472.69 C 647.66 474.83 650.43 475.54 652.61 474.29 L 655.52 472.62 C 657.39 471.55 659.72 471.76 661.38 473.13 C 662.63 474.16 663.93 475.13 665.29 476.02 C 667.07 477.17 667.91 479.32 667.38 481.37 L 666.54 484.57 C 666.25 485.73 666.44 486.96 667.06 487.98 C 667.68 489.00 668.68 489.73 669.84 490.01 L 680.38 492.71 C 682.79 493.35 685.27 491.93 685.94 489.52 L 686.78 486.31 C 687.34 484.25 689.14 482.78 691.26 482.63 C 692.88 482.51 694.49 482.29 696.09 481.97 C 698.19 481.57 700.33 482.51 701.45 484.33 L 703.18 487.18 C 704.49 489.31 707.26 490.02 709.44 488.78 L 718.81 483.40 C 719.85 482.82 720.61 481.84 720.91 480.68 C 721.21 479.53 721.03 478.31 720.41 477.29 L 718.69 474.44 C 717.58 472.64 717.77 470.32 719.17 468.73 C 720.22 467.52 721.20 466.25 722.10 464.92 C 723.32 463.17 725.51 462.37 727.57 462.92 L 730.85 463.75 C 733.26 464.39 735.75 462.97 736.41 460.56 L 739.11 450.27 C 739.41 449.11 739.22 447.88 738.61 446.86 C 737.99 445.83 736.98 445.10 735.82 444.82 L 732.54 443.99 C 730.47 443.48 728.96 441.72 728.76 439.60 C 728.62 438.01 728.38 436.43 728.06 434.87 C 727.64 432.79 728.60 430.68 730.45 429.64 L 733.36 427.97 C 734.40 427.39 735.16 426.41 735.46 425.25 C 735.76 424.10 735.58 422.88 734.96 421.86 L 729.42 412.68 C 728.11 410.54 725.33 409.84 723.16 411.09 L 720.25 412.76 C 718.38 413.83 716.05 413.62 714.39 412.25 C 713.15 411.22 711.84 410.25 710.49 409.37 C 708.70 408.23 707.85 406.06 708.39 404.01 L 709.22 400.81 C 709.52 399.65 709.33 398.42 708.71 397.40 C 708.10 396.38 707.09 395.65 705.93 395.37 L 695.39 392.68 C 692.97 392.03 690.49 393.46 689.83 395.87 L 688.99 399.07 C 688.43 401.12 686.64 402.60 684.52 402.75 C 682.89 402.87 681.28 403.09 679.68 403.41 C 677.57 403.82 675.43 402.88 674.31 401.05 L 672.59 398.20 C 671.28 396.06 668.51 395.35 666.33 396.60 L 657.00 402.00 C 655.97 402.59 655.21 403.56 654.91 404.71 C 654.61 405.86 654.79 407.08 655.40 408.10 L 657.13 410.96 C 658.23 412.77 658.02 415.08 656.63 416.67 C 655.58 417.88 654.60 419.15 653.70 420.47 C 652.48 422.22 650.30 423.02 648.24 422.47 L 644.95 421.63 C 642.54 420.99 640.05 422.41 639.39 424.82 L 636.69 435.12 C 636.40 436.27 636.57 437.49 637.18 438.52 C 637.79 439.54 638.79 440.27 639.94 440.56 Z M 663.44 438.48 C 666.06 423.73 681.44 414.90 695.96 419.81 C 707.33 423.59 714.26 435.07 712.33 446.89 C 709.70 461.62 694.33 470.46 679.80 465.54 C 668.45 461.76 661.52 450.29 663.44 438.48 Z" fill="#203c79" fill-rule="nonzero" group-id="1" node-id="297" stroke="none" target-height="101.31854" target-width="103.00873" target-x="636.39655" target-y="392.02988"></path><path d="M 616.83 433.16 L 619.66 433.88 C 621.44 434.32 622.75 435.83 622.92 437.66 C 623.03 439.02 623.23 440.38 623.51 441.72 C 623.89 443.50 623.08 445.32 621.51 446.23 L 619.00 447.66 C 618.11 448.17 617.46 449.01 617.20 450.00 C 616.94 451.00 617.10 452.05 617.63 452.93 L 622.39 460.83 C 623.52 462.67 625.91 463.27 627.78 462.20 L 630.29 460.77 C 631.89 459.88 633.87 460.05 635.29 461.20 C 636.36 462.09 637.49 462.92 638.65 463.69 C 640.18 464.68 640.91 466.54 640.45 468.30 L 639.73 471.06 C 639.48 472.06 639.64 473.11 640.17 473.99 C 640.71 474.87 641.57 475.50 642.57 475.74 L 651.65 478.06 C 653.73 478.61 655.86 477.39 656.43 475.31 L 657.16 472.55 C 657.64 470.78 659.19 469.51 661.02 469.39 C 662.41 469.28 663.80 469.09 665.17 468.82 C 666.98 468.46 668.82 469.26 669.80 470.82 L 671.28 473.27 C 672.41 475.10 674.79 475.70 676.66 474.64 L 684.74 470.02 C 685.63 469.51 686.28 468.67 686.54 467.68 C 686.80 466.68 686.65 465.63 686.12 464.75 L 684.63 462.30 C 683.68 460.75 683.84 458.75 685.04 457.38 C 685.95 456.34 686.79 455.24 687.57 454.10 C 688.62 452.59 690.50 451.89 692.28 452.36 L 695.11 453.08 C 697.19 453.63 699.32 452.41 699.89 450.34 L 702.22 441.48 C 702.47 440.48 702.32 439.42 701.78 438.54 C 701.25 437.65 700.38 437.02 699.38 436.78 L 696.56 436.06 C 694.78 435.62 693.47 434.11 693.30 432.28 C 693.19 430.91 692.99 429.55 692.70 428.21 C 692.34 426.42 693.17 424.61 694.76 423.71 L 697.27 422.27 C 698.16 421.77 698.82 420.92 699.07 419.93 C 699.33 418.94 699.18 417.88 698.64 417.01 L 693.87 409.11 C 692.74 407.27 690.35 406.66 688.48 407.73 L 686.00 409.21 C 684.40 410.11 682.42 409.94 681.00 408.77 C 679.93 407.87 678.81 407.05 677.64 406.29 C 676.10 405.30 675.38 403.44 675.83 401.67 L 676.55 398.92 C 676.80 397.92 676.65 396.87 676.11 395.98 C 675.58 395.10 674.72 394.47 673.72 394.23 L 664.64 391.91 C 662.56 391.36 660.43 392.58 659.86 394.66 L 659.13 397.41 C 658.65 399.18 657.11 400.46 655.28 400.59 C 653.88 400.70 652.50 400.89 651.12 401.15 C 649.31 401.51 647.47 400.72 646.49 399.15 L 645.01 396.70 C 643.88 394.86 641.49 394.25 639.62 395.32 L 631.55 399.95 C 630.66 400.46 630.01 401.30 629.75 402.29 C 629.49 403.28 629.64 404.33 630.17 405.21 L 631.66 407.67 C 632.61 409.23 632.43 411.22 631.23 412.59 C 630.33 413.63 629.49 414.72 628.71 415.86 C 627.67 417.38 625.78 418.08 624.00 417.61 L 621.17 416.89 C 619.09 416.34 616.96 417.56 616.39 419.64 L 614.00 428.47 C 613.75 429.47 613.90 430.52 614.44 431.41 C 614.97 432.29 615.83 432.92 616.83 433.16 Z" fill="#5d81ec" fill-rule="nonzero" group-id="1" node-id="299" stroke="none" target-height="87.25864" target-width="88.72626" target-x="613.7468" target-y="391.35568"></path><path d="M 635.10 433.93 L 636.68 434.34 C 637.67 434.58 638.40 435.43 638.49 436.45 C 638.55 437.21 638.66 437.96 638.82 438.71 C 639.02 439.71 638.56 440.72 637.67 441.22 L 636.27 442.02 C 635.77 442.30 635.41 442.77 635.26 443.32 C 635.12 443.87 635.20 444.46 635.50 444.95 L 638.15 449.36 C 638.78 450.38 640.11 450.72 641.15 450.13 L 642.54 449.33 C 643.44 448.82 644.56 448.92 645.36 449.58 C 645.95 450.07 646.58 450.53 647.23 450.97 C 648.08 451.52 648.48 452.56 648.23 453.54 L 647.83 455.07 C 647.69 455.63 647.77 456.22 648.07 456.71 C 648.36 457.20 648.84 457.55 649.40 457.69 L 654.46 458.99 C 655.62 459.29 656.80 458.61 657.13 457.46 L 657.54 455.92 C 657.80 454.93 658.67 454.22 659.69 454.16 C 660.47 454.10 661.24 454.00 662.01 453.85 C 663.02 453.65 664.04 454.10 664.58 454.98 L 665.41 456.35 C 666.04 457.38 667.37 457.72 668.41 457.12 L 672.91 454.54 C 673.41 454.26 673.77 453.79 673.92 453.24 C 674.06 452.69 673.98 452.10 673.68 451.61 L 672.86 450.25 C 672.33 449.38 672.42 448.27 673.09 447.50 C 673.60 446.92 674.07 446.31 674.50 445.68 C 675.08 444.83 676.13 444.43 677.13 444.68 L 678.70 445.09 C 679.86 445.40 681.05 444.72 681.37 443.56 L 682.68 438.63 C 682.82 438.07 682.73 437.48 682.43 436.99 C 682.14 436.50 681.66 436.15 681.10 436.01 L 679.53 435.60 C 678.54 435.35 677.81 434.51 677.71 433.49 C 677.65 432.73 677.54 431.98 677.38 431.23 C 677.18 430.23 677.64 429.22 678.53 428.72 L 679.93 427.92 C 680.43 427.64 680.79 427.17 680.94 426.62 C 681.08 426.07 681.00 425.48 680.71 424.99 L 678.05 420.58 C 677.42 419.55 676.09 419.21 675.05 419.81 L 673.65 420.61 C 672.75 421.12 671.63 421.02 670.84 420.36 C 670.25 419.87 669.64 419.42 669.00 419.00 C 668.15 418.44 667.75 417.41 668.00 416.42 L 668.41 414.89 C 668.55 414.33 668.46 413.74 668.17 413.25 C 667.87 412.76 667.39 412.40 666.83 412.27 L 661.74 411.00 C 660.58 410.69 659.40 411.37 659.07 412.52 L 658.67 414.06 C 658.40 415.04 657.54 415.75 656.52 415.82 C 655.74 415.88 654.97 415.99 654.20 416.13 C 653.19 416.33 652.16 415.88 651.63 415.00 L 650.80 413.63 C 650.18 412.60 648.84 412.26 647.80 412.86 L 643.30 415.43 C 642.80 415.71 642.44 416.18 642.29 416.73 C 642.15 417.28 642.23 417.87 642.53 418.36 L 643.35 419.73 C 643.88 420.60 643.78 421.71 643.11 422.47 C 642.61 423.05 642.14 423.66 641.70 424.30 C 641.12 425.15 640.07 425.55 639.07 425.30 L 637.50 424.89 C 636.34 424.58 635.15 425.27 634.83 426.42 L 633.53 431.36 C 633.25 432.50 633.96 433.65 635.10 433.93 Z M 646.38 432.93 C 647.04 429.54 649.14 426.60 652.14 424.88 C 655.14 423.17 658.74 422.84 662.00 424.00 C 667.45 425.82 670.77 431.33 669.83 437.00 C 669.19 440.41 667.10 443.37 664.09 445.10 C 661.09 446.83 657.48 447.16 654.21 446.00 C 648.76 444.18 645.44 438.67 646.38 433.00 Z" fill="#ffffff" fill-rule="nonzero" group-id="1" node-id="301" stroke="none" target-height="48.598145" target-width="49.564697" target-x="633.25415" target-y="410.6927"></path><path d="M 861.65 555.34 C 851.27 561.45 847.34 573.02 844.95 583.78 C 842.69 593.95 841.13 604.26 840.30 614.65 C 840.14 616.78 839.97 619.01 838.71 620.83 C 835.71 625.28 828.40 625.09 822.49 624.66 C 808.08 623.60 794.49 627.98 779.35 626.87 C 781.45 630.62 782.32 634.92 781.84 639.19 C 802.10 642.61 822.84 646.05 843.22 643.52 C 848.87 642.82 854.58 641.61 859.33 638.86 C 869.66 632.86 873.14 621.19 875.07 610.48 C 877.14 599.04 878.34 587.47 878.67 575.85 C 878.82 570.43 878.67 564.64 875.14 560.17 C 871.61 555.70 863.89 554.02 861.65 555.34" fill="#ffcdab" fill-rule="nonzero" group-id="1" node-id="303" stroke="none" target-height="92.02997" target-width="99.46997" target-x="779.35004" target-y="554.02"></path><path d="M 864.40 547.23 C 858.27 548.62 854.40 554.23 851.58 559.58 C 844.47 573.26 840.61 588.39 840.29 603.80 C 852.13 603.35 863.98 603.69 875.78 604.80 C 878.01 595.70 879.80 586.52 881.13 577.26 C 881.84 572.38 882.41 567.34 880.98 562.61 C 879.97 559.58 878.42 556.75 876.41 554.26 C 872.88 549.63 867.72 546.47 864.41 547.26" fill="#ffbf00" fill-rule="nonzero" group-id="1" node-id="305" stroke="none" target-height="58.330017" target-width="42.119995" target-x="840.29" target-y="546.47"></path><path d="M 782.17 627.00 C 777.33 626.59 775.17 626.24 771.89 624.37 C 769.71 623.11 765.51 621.31 763.00 621.45 C 762.35 621.45 761.53 621.92 761.69 622.55 C 761.81 623.00 762.33 623.17 762.77 623.31 C 764.48 623.87 770.66 627.39 769.11 626.81 C 764.82 627.29 760.49 627.36 756.18 626.99 C 755.35 626.86 754.49 626.89 753.67 627.08 C 752.86 627.33 751.67 628.08 752.08 628.84 C 752.64 629.74 760.55 629.95 764.78 630.50 L 754.04 630.77 C 753.17 630.77 751.89 631.29 752.25 632.09 C 752.73 633.16 761.13 633.19 765.58 633.74 L 755.41 634.36 C 754.05 634.44 751.55 635.20 752.67 635.98 C 754.67 637.42 761.57 636.78 766.43 636.98 L 760.04 637.90 C 759.34 638.01 758.40 638.51 758.72 639.15 C 758.88 639.48 759.31 639.56 759.67 639.61 C 767.79 640.61 774.95 639.48 784.10 639.61 C 783.34 635.42 784.10 631.08 782.17 627.05" fill="#ffcdab" fill-rule="nonzero" group-id="1" node-id="307" stroke="none" target-height="19.299988" target-width="32.549988" target-x="751.55" target-y="621.31"></path><path d="M 823.85 523.00 C 823.11 528.28 821.20 533.33 818.24 537.77 C 821.34 540.85 826.18 541.41 830.61 541.49 C 832.80 541.61 834.99 541.42 837.12 540.92 C 837.36 540.88 837.59 540.77 837.77 540.61 C 837.92 540.41 838.01 540.18 838.03 539.93 C 839.66 530.55 841.15 521.15 842.50 511.74 C 838.02 512.52 833.37 511.10 828.85 511.69 C 828.41 511.71 827.99 511.84 827.61 512.07 C 827.19 512.40 826.88 512.84 826.70 513.34 C 825.31 516.42 824.36 519.67 823.85 523.00" fill="#ffcdab" fill-rule="nonzero" group-id="1" node-id="309" stroke="none" target-height="30.507568" target-width="24.26001" target-x="818.24" target-y="511.09998"></path><path d="M 835.46 526.10 C 839.26 522.10 839.88 516.42 842.46 511.75 C 837.98 512.53 833.34 511.11 828.82 511.70 C 828.38 511.72 827.96 511.85 827.58 512.08 C 827.16 512.41 826.85 512.85 826.67 513.35 C 825.28 516.43 824.33 519.68 823.82 523.01 C 823.41 525.92 822.64 528.77 821.52 531.49 C 826.72 531.78 831.78 529.81 835.43 526.10" fill="#f4bd98" fill-rule="nonzero" group-id="1" node-id="311" stroke="none" target-height="20.667786" target-width="20.939941" target-x="821.5201" target-y="511.11"></path><path d="M 821.85 498.28 C 820.39 501.33 819.85 504.70 818.49 507.79 C 816.68 512.03 813.43 516.23 814.49 520.70 C 815.36 524.32 819.09 526.88 822.91 527.27 C 826.76 527.48 830.57 526.37 833.71 524.13 C 839.80 520.10 843.92 513.69 845.05 506.48 C 845.39 504.15 845.52 502.08 843.17 499.74 C 840.66 497.29 837.60 495.47 834.25 494.43 C 829.17 492.60 823.25 495.24 821.83 498.28" fill="#ffcdab" fill-rule="nonzero" group-id="1" node-id="313" stroke="none" target-height="34.878998" target-width="32.090027" target-x="813.43" target-y="492.6"></path><path d="M 830.51 489.92 C 826.08 490.29 822.39 493.47 821.36 497.80 C 821.26 498.10 821.28 498.42 821.42 498.70 C 821.72 499.19 822.48 499.11 823.01 498.87 C 823.50 498.54 824.08 498.39 824.67 498.43 C 825.59 498.67 825.67 499.90 825.96 500.78 C 826.56 502.38 828.50 503.08 830.24 503.36 C 831.97 503.72 833.76 503.58 835.42 502.97 C 836.50 502.50 837.42 501.72 838.54 501.33 C 839.66 500.94 841.16 501.10 841.70 502.13 C 842.39 503.41 841.15 505.03 841.70 506.38 C 842.18 507.28 843.12 507.84 844.14 507.83 C 846.02 507.86 847.77 506.90 848.76 505.30 C 849.68 503.73 849.99 501.87 849.63 500.09 C 849.30 498.18 848.42 496.42 847.10 495.00 C 843.99 491.64 839.03 490.68 834.44 489.91 C 832.63 489.61 830.61 489.35 830.51 489.91" fill="#141d30" fill-rule="nonzero" group-id="1" node-id="315" stroke="none" target-height="18.50772" target-width="28.728516" target-x="821.26324" target-y="489.35"></path><path d="M 835.06 490.14 L 822.06 486.67 C 820.88 486.28 819.65 486.10 818.41 486.13 C 816.72 486.34 815.16 487.15 814.00 488.40 C 811.33 491.11 810.43 495.10 811.68 498.69 C 812.55 501.07 814.83 503.32 817.53 503.10 C 820.23 502.88 822.12 500.21 824.65 499.05 C 825.18 498.75 825.81 498.70 826.38 498.92 C 826.66 499.12 826.91 499.35 827.12 499.62 C 827.96 500.40 829.13 500.71 830.25 500.47 C 831.35 500.22 832.35 499.67 833.14 498.87 C 835.48 496.61 836.24 493.17 835.07 490.14" fill="#141d30" fill-rule="nonzero" group-id="1" node-id="317" stroke="none" target-height="17.219727" target-width="25.807678" target-x="810.4343" target-y="486.10028"></path><path d="M 840.45 499.81 C 840.97 502.59 840.79 505.46 839.92 508.16 C 839.78 508.52 839.70 508.89 839.66 509.27 C 839.66 509.70 839.73 510.13 839.88 510.54 C 840.45 512.45 841.02 514.36 841.58 516.27 C 845.06 514.59 847.94 510.68 849.50 503.56 C 849.77 502.30 849.50 502.11 848.96 500.97 C 847.96 499.10 845.56 498.60 843.45 498.46 C 842.77 498.37 842.09 498.45 841.45 498.69 C 840.82 498.98 840.35 499.69 840.45 499.81" fill="#141d30" fill-rule="nonzero" group-id="1" node-id="319" stroke="none" target-height="17.899506" target-width="10.111755" target-x="839.65826" target-y="498.3705"></path><path d="M 839.74 509.77 C 840.88 508.28 842.80 507.59 844.63 508.01 C 847.79 508.78 844.70 514.65 839.32 515.41 C 838.59 515.60 837.82 515.36 837.32 514.79 C 837.09 514.23 837.13 513.59 837.43 513.06 C 838.06 511.54 839.00 510.13 839.78 509.77" fill="#ffcdab" fill-rule="nonzero" group-id="1" node-id="321" stroke="none" target-height="8.009491" target-width="10.698181" target-x="837.0918" target-y="507.5872"></path><path d="M 275.25 927.82 C 275.25 936.60 248.07 943.71 214.55 943.71 C 181.03 943.71 153.85 936.60 153.85 927.82 C 153.85 919.04 181.03 911.94 214.55 911.94 C 248.07 911.94 275.25 919.05 275.25 927.82 Z" fill="#b8d0ff" fill-rule="nonzero" group-id="1" node-id="323" stroke="none" target-height="31.77002" target-width="121.399994" target-x="153.85" target-y="911.94"></path><path d="M 225.90 506.30 C 221.56 502.69 215.28 502.66 210.90 506.21 C 205.19 511.12 205.20 520.70 199.13 525.14 C 192.07 530.29 182.39 525.30 173.67 524.62 C 167.53 524.10 161.43 526.10 156.80 530.17 C 152.21 534.32 149.95 540.45 150.73 546.59 C 151.59 552.25 155.26 557.76 153.73 563.28 C 153.14 565.42 151.82 567.28 150.94 569.28 C 148.16 575.71 149.96 583.21 155.36 587.67 C 160.76 592.13 168.46 592.49 174.25 588.54 C 177.00 586.68 179.25 583.91 182.40 582.89 C 186.02 581.71 189.92 583.11 193.72 583.40 C 201.72 584.01 209.72 579.33 214.05 572.57 C 218.38 565.81 219.52 557.29 218.27 549.34 C 217.72 545.82 216.81 541.92 218.74 538.92 C 220.67 535.92 224.63 535.04 226.74 532.28 C 232.34 525.09 221.49 513.28 225.83 506.28" fill="#141d30" fill-rule="nonzero" group-id="1" node-id="325" stroke="none" target-height="89.82959" target-width="84.18419" target-x="148.15579" target-y="502.6571"></path><path d="M 171.76 915.35 C 176.47 922.74 186.95 923.86 192.91 930.22 C 193.36 930.64 193.71 931.17 193.91 931.76 C 194.11 933.14 193.29 934.46 191.97 934.89 C 190.68 935.23 189.33 935.23 188.04 934.89 L 165.90 931.23 C 165.09 931.14 164.31 930.90 163.59 930.52 C 162.09 929.59 161.59 927.61 161.29 925.84 C 160.29 920.52 160.79 916.06 159.78 910.74 C 164.71 911.50 167.03 913.21 171.78 915.32" fill="#fa6e61" fill-rule="nonzero" group-id="1" node-id="327" stroke="none" target-height="24.490356" target-width="34.33467" target-x="159.78" target-y="910.74005"></path><path d="M 193.92 931.76 C 193.72 931.17 193.37 930.64 192.92 930.22 C 190.55 927.68 187.45 925.98 184.29 924.38 C 182.92 926.38 180.24 927.06 177.69 926.94 C 175.95 926.86 174.23 926.62 172.49 926.43 C 170.75 926.28 169.03 925.91 167.39 925.32 C 164.86 924.39 162.57 922.88 160.71 920.93 C 160.82 922.59 161.02 924.24 161.31 925.87 C 161.65 927.64 162.11 929.62 163.61 930.55 C 164.33 930.93 165.11 931.17 165.92 931.26 L 188.06 934.92 C 189.34 935.26 190.70 935.26 191.98 934.92 C 193.31 934.50 194.14 933.17 193.93 931.79" fill="#132444" fill-rule="nonzero" group-id="1" node-id="329" stroke="none" target-height="14.330383" target-width="33.427887" target-x="160.71" target-y="920.93"></path><path d="M 194.00 633.08 C 175.73 673.89 166.97 718.31 168.39 763.00 C 168.62 769.90 169.09 776.85 167.86 783.64 C 166.69 790.08 164.03 796.15 161.86 802.33 C 149.18 838.71 153.96 878.66 160.80 916.57 C 166.29 916.37 166.23 916.18 171.73 915.98 C 172.56 871.11 193.73 827.98 202.39 783.98 C 205.33 768.98 207.47 753.88 209.60 738.77 C 214.12 706.73 218.64 674.69 223.17 642.64 C 213.29 640.43 203.41 638.22 193.98 633.08" fill="#ffcdab" fill-rule="nonzero" group-id="1" node-id="331" stroke="none" target-height="283.49" target-width="73.99002" target-x="149.18" target-y="633.08"></path><path d="M 166.79 807.61 C 171.26 805.13 176.04 803.25 181.00 802.00 C 183.21 801.38 185.50 801.08 187.79 801.11 C 189.84 801.20 191.87 801.47 193.87 801.94 C 195.27 802.26 196.64 802.69 197.97 803.22 C 199.66 796.84 201.19 790.44 202.45 784.03 C 205.39 769.03 207.53 753.93 209.66 738.82 C 214.18 706.78 218.70 674.74 223.23 642.69 C 213.35 640.48 203.47 638.27 194.04 633.13 C 175.76 673.92 166.99 718.33 168.39 763.00 C 168.62 769.90 169.09 776.85 167.86 783.64 C 166.69 790.08 164.03 796.15 161.86 802.33 C 160.48 806.28 159.32 810.27 158.34 814.33 C 160.79 811.67 163.63 809.41 166.77 807.62" fill="#f4bd98" fill-rule="nonzero" group-id="1" node-id="333" stroke="none" target-height="181.20001" target-width="64.89" target-x="158.34" target-y="633.13"></path><path d="M 249.00 903.06 C 253.53 910.37 263.64 911.48 269.39 917.77 C 269.85 918.19 270.19 918.71 270.39 919.30 C 270.60 920.65 269.81 921.96 268.52 922.40 C 267.28 922.73 265.98 922.73 264.74 922.40 L 243.40 918.78 C 242.62 918.69 241.86 918.45 241.17 918.08 C 239.73 917.15 239.28 915.20 238.96 913.45 C 237.96 908.18 238.47 903.76 237.50 898.45 C 242.25 899.20 244.50 900.89 249.04 902.99" fill="#fa6e61" fill-rule="nonzero" group-id="1" node-id="335" stroke="none" target-height="24.275085" target-width="33.099792" target-x="237.5" target-y="898.44995"></path><path d="M 270.33 919.30 C 270.13 918.71 269.79 918.18 269.33 917.76 C 266.91 915.37 264.10 913.42 261.01 912.00 C 259.68 913.93 257.10 914.65 254.64 914.53 C 252.97 914.45 251.30 914.21 249.64 914.02 C 247.96 913.88 246.30 913.51 244.72 912.92 C 242.27 911.99 240.06 910.50 238.28 908.58 C 238.38 910.22 238.58 911.85 238.86 913.47 C 239.18 915.22 239.63 917.17 241.07 918.10 C 241.76 918.47 242.52 918.71 243.30 918.80 L 264.64 922.42 C 265.88 922.75 267.18 922.75 268.42 922.42 C 269.71 921.98 270.50 920.67 270.29 919.32" fill="#132444" fill-rule="nonzero" group-id="1" node-id="337" stroke="none" target-height="14.164978" target-width="32.219803" target-x="238.28001" target-y="908.58"></path><path d="M 210.56 648.27 C 203.66 688.36 207.74 729.57 222.35 767.53 C 224.35 772.79 226.64 778.05 227.35 783.64 C 228.00 788.51 227.46 793.44 227.09 798.33 C 225.31 821.99 228.22 844.33 231.23 867.87 C 232.92 881.03 236.35 889.27 238.23 904.13 C 241.86 903.57 250.30 903.87 249.75 904.23 C 251.54 890.23 262.88 802.01 255.98 746.06 C 251.94 713.87 246.05 681.95 238.33 650.44 C 238.16 649.19 237.59 648.03 236.70 647.14 C 235.58 646.25 233.99 646.34 232.56 646.46 C 224.32 647.18 216.07 647.91 210.51 648.27" fill="#ffcdab" fill-rule="nonzero" group-id="1" node-id="339" stroke="none" target-height="257.97998" target-width="59.2162" target-x="203.6638" target-y="646.25"></path><path d="M 227.37 783.64 C 228.02 788.51 227.48 793.44 227.11 798.33 C 227.04 799.33 226.98 800.33 226.92 801.33 C 227.78 800.68 228.65 800.04 229.56 799.47 C 230.72 798.74 231.91 798.07 233.14 797.47 C 236.45 795.69 239.99 794.37 243.66 793.56 C 248.45 792.54 253.37 792.35 258.22 792.99 C 258.35 776.42 257.78 760.20 256.03 745.99 C 251.99 713.80 246.10 681.88 238.38 650.37 C 238.21 649.12 237.64 647.96 236.75 647.07 C 235.63 646.18 234.04 646.27 232.61 646.39 C 224.37 647.11 216.12 647.84 210.56 648.20 C 203.66 688.29 207.74 729.50 222.35 767.46 C 224.35 772.72 226.64 777.98 227.35 783.57" fill="#f4bd98" fill-rule="nonzero" group-id="1" node-id="341" stroke="none" target-height="155.15009" target-width="54.686203" target-x="203.6638" target-y="646.18"></path><path d="M 245.73 582.00 C 250.73 599.08 257.16 627.07 264.03 637.00 C 267.47 641.89 271.86 646.05 276.93 649.21 C 290.56 657.85 301.15 656.06 315.93 661.21 C 316.00 656.21 315.93 659.29 317.40 654.68 C 304.77 647.81 269.97 634.74 268.22 600.68 C 266.84 573.81 264.13 572.46 258.40 558.04 C 257.16 554.90 253.23 548.87 250.40 547.85 C 247.57 546.83 236.87 551.77 245.71 582.07" fill="#ffcdab" fill-rule="nonzero" group-id="1" node-id="343" stroke="none" target-height="114.380005" target-width="80.53" target-x="236.87" target-y="546.83"></path><path d="M 307.00 656.58 C 310.07 659.34 313.18 662.12 316.73 663.95 C 317.86 664.53 319.24 665.56 320.31 664.85 C 320.37 663.79 319.86 664.05 318.39 663.14 C 317.58 662.64 316.39 662.07 315.99 661.14 C 318.98 662.99 322.50 663.81 326.00 663.46 C 325.90 662.78 325.45 662.21 324.81 661.96 C 324.22 661.76 323.60 661.65 322.98 661.62 C 321.36 661.39 319.84 660.69 318.60 659.62 C 321.51 660.72 324.71 661.80 327.55 660.48 C 327.58 659.93 327.27 659.41 326.77 659.18 C 326.30 659.00 325.81 658.92 325.31 658.94 C 323.44 658.84 321.63 658.25 320.05 657.24 C 322.69 658.05 325.50 658.11 328.17 657.42 C 328.17 656.42 326.99 656.08 326.10 656.01 C 323.86 655.89 321.68 655.18 319.80 653.95 C 319.54 653.77 318.08 652.95 318.11 652.66 C 318.14 652.37 320.66 650.88 321.47 650.12 C 322.27 649.44 322.52 648.31 322.06 647.36 C 317.62 649.69 312.68 652.06 308.06 650.36 C 307.82 652.44 307.45 654.50 306.95 656.53" fill="#ffcdab" fill-rule="nonzero" group-id="1" node-id="345" stroke="none" target-height="18.200012" target-width="21.220001" target-x="306.95" target-y="647.36"></path><path d="M 250.64 545.35 C 246.45 547.41 243.12 550.89 241.26 555.17 C 240.23 557.76 239.56 560.49 239.26 563.26 C 237.59 576.04 239.31 589.03 244.26 600.93 C 252.43 599.72 260.43 597.58 268.12 594.57 C 268.72 594.41 269.23 594.03 269.55 593.50 C 269.69 593.04 269.69 592.55 269.55 592.09 C 266.43 578.54 262.13 565.30 256.70 552.50 C 255.63 549.98 254.45 547.38 252.33 545.66 C 251.46 544.95 249.51 545.17 250.65 545.35" fill="#ebf3ff" fill-rule="nonzero" group-id="1" node-id="347" stroke="none" target-height="55.97998" target-width="32.10823" target-x="237.58675" target-y="544.95"></path><path d="M 218.18 536.81 C 209.04 536.99 198.85 537.62 192.62 544.29 C 186.39 550.96 186.48 561.29 186.95 570.49 C 188.12 593.75 188.49 618.62 176.13 638.38 C 200.62 649.00 228.11 650.48 253.59 642.53 C 251.21 626.53 249.31 610.08 252.94 594.33 C 256.21 580.16 263.74 564.85 256.86 552.04 C 253.15 545.14 245.81 540.76 238.20 538.83 C 230.59 536.90 222.63 537.11 218.20 536.83" fill="#ffffff" fill-rule="nonzero" group-id="1" node-id="349" stroke="none" target-height="113.666626" target-width="87.609985" target-x="176.13" target-y="536.81"></path><path d="M 219.72 584.72 L 219.55 584.25 C 232.44 579.47 242.25 568.79 245.93 555.55 L 246.41 555.68 C 242.68 569.08 232.76 579.88 219.72 584.72 Z" fill="#26395e" fill-rule="nonzero" group-id="1" node-id="351" stroke="none" target-height="29.169983" target-width="26.859985" target-x="219.55" target-y="555.55"></path><path d="M 234.34 587.93 L 234.05 587.52 C 239.95 583.29 244.58 577.52 247.42 570.84 L 247.88 571.03 C 245.00 577.80 240.32 583.64 234.34 587.93 Z" fill="#26395e" fill-rule="nonzero" group-id="1" node-id="353" stroke="none" target-height="17.089966" target-width="13.830002" target-x="234.05" target-y="570.84"></path><path d="M 184.92 626.49 C 157.24 670.87 150.14 725.37 143.74 777.85 C 143.43 779.19 143.57 780.60 144.14 781.85 C 144.79 782.73 145.68 783.40 146.71 783.77 C 185.27 801.93 230.23 795.34 271.29 784.33 C 272.65 783.97 274.20 783.41 274.65 782.03 C 274.80 781.37 274.80 780.69 274.65 780.03 C 272.88 765.78 271.12 751.53 269.35 737.28 C 267.63 723.42 265.91 709.55 263.62 695.78 C 260.22 675.20 255.54 654.84 249.62 634.84 C 249.27 633.20 248.52 631.68 247.44 630.40 C 245.19 628.19 241.62 628.78 238.57 629.40 C 220.72 632.85 202.29 631.85 184.92 626.47" fill="#8896a8" fill-rule="nonzero" group-id="1" node-id="355" stroke="none" target-height="175.45996" target-width="131.3718" target-x="143.42996" target-y="626.47"></path><path d="M 236.93 526.91 C 236.12 532.41 236.52 538.02 238.11 543.34 C 234.20 545.55 229.33 544.74 225.00 543.56 C 222.84 543.05 220.76 542.23 218.83 541.14 C 218.61 541.02 218.42 540.84 218.29 540.63 C 218.19 540.39 218.19 540.12 218.29 539.88 C 221.71 531.03 222.40 522.40 221.84 511.40 C 225.97 513.47 231.16 512.26 235.39 514.13 C 235.81 514.29 236.19 514.54 236.49 514.87 C 236.80 515.32 236.97 515.85 237.00 516.40 C 237.47 519.89 237.47 523.42 237.00 526.91" fill="#ffcdab" fill-rule="nonzero" group-id="1" node-id="357" stroke="none" target-height="34.150024" target-width="19.924042" target-x="218.18596" target-y="511.39996"></path><path d="M 224.73 526.71 C 222.20 521.59 223.24 515.71 222.06 510.30 C 226.19 512.36 231.11 512.30 235.34 514.13 C 235.76 514.29 236.14 514.54 236.44 514.87 C 236.75 515.32 236.92 515.85 236.95 516.40 C 237.42 519.89 237.42 523.42 236.95 526.91 C 236.51 529.95 236.43 533.03 236.73 536.08 C 231.55 534.87 227.16 531.44 224.73 526.71" fill="#f4bd98" fill-rule="nonzero" group-id="1" node-id="359" stroke="none" target-height="25.78003" target-width="15.358398" target-x="222.06" target-y="510.3"></path><path d="M 246.00 502.65 C 246.53 506.12 247.08 509.19 247.46 512.65 C 247.99 517.41 248.98 521.11 246.64 525.29 C 244.71 529.01 240.69 531.16 236.52 530.69 C 232.73 530.20 229.29 528.22 226.96 525.19 C 222.17 519.33 220.03 511.75 221.03 504.25 C 221.38 501.81 221.85 499.70 224.81 498.02 C 227.94 496.28 231.45 495.32 235.03 495.23 C 240.50 494.83 245.46 499.16 246.03 502.62" fill="#ffcdab" fill-rule="nonzero" group-id="1" node-id="361" stroke="none" target-height="36.3331" target-width="28.953918" target-x="220.02608" target-y="494.83"></path><path d="M 248.17 491.31 C 252.62 494.63 254.35 498.01 251.78 501.31 C 250.09 503.51 248.13 501.73 247.43 501.72 C 246.43 501.72 246.06 502.92 245.43 503.72 C 244.43 505.16 242.30 505.31 240.52 505.09 C 238.74 504.96 237.03 504.32 235.61 503.24 C 234.69 502.45 234.02 501.40 233.04 500.69 C 232.06 499.98 230.56 499.69 229.73 500.60 C 228.73 501.69 229.43 503.67 228.52 504.87 C 227.82 505.64 226.73 505.94 225.73 505.63 C 223.88 505.11 222.45 503.65 221.97 501.79 C 221.53 499.94 221.76 497.99 222.63 496.30 C 223.49 494.50 224.85 492.98 226.54 491.92 C 230.54 489.43 234.15 492.24 238.26 489.92 C 241.70 487.99 247.65 490.92 248.12 491.27" fill="#141d30" fill-rule="nonzero" group-id="1" node-id="363" stroke="none" target-height="17.950562" target-width="32.824905" target-x="221.5251" target-y="487.99"></path><path d="M 227.50 498.90 C 226.19 501.55 225.53 504.47 225.59 507.43 C 225.62 507.83 225.60 508.23 225.53 508.62 C 225.40 509.05 225.20 509.46 224.94 509.83 L 221.63 515.10 C 218.73 512.43 214.81 508.77 216.89 502.01 C 217.29 500.45 217.97 498.97 218.89 497.64 C 223.16 492.92 226.37 497.02 226.89 497.50 C 227.41 497.98 227.67 498.83 227.50 498.90" fill="#141d30" fill-rule="nonzero" group-id="1" node-id="365" stroke="none" target-height="22.179962" target-width="12.860016" target-x="214.80998" target-y="492.92"></path><path d="M 223.47 512.25 C 222.09 510.91 220.05 510.52 218.28 511.25 C 215.28 512.55 219.34 518.11 224.86 518.03 C 225.63 518.03 226.53 517.79 226.79 517.03 C 226.92 516.42 226.77 515.78 226.39 515.28 C 225.49 513.81 224.32 512.51 223.47 512.28" fill="#ffcdab" fill-rule="nonzero" group-id="1" node-id="367" stroke="none" target-height="7.5921936" target-width="11.640976" target-x="215.28" target-y="510.5178"></path><path d="M 551.28 654.40 L 530.19 654.40 L 521.80 632.59 L 483.42 632.59 L 475.50 654.40 L 454.93 654.40 L 492.33 558.40 L 512.83 558.40 Z M 515.58 616.40 L 502.35 580.77 L 489.35 616.40 Z" fill="#6c63ff" fill-rule="nonzero" group-id="1" node-id="369" stroke="none" target-height="96" target-width="96.35004" target-x="454.93" target-y="558.4"></path><path d="M 561.00 654.40 L 561.00 558.40 L 580.39 558.40 L 580.39 654.40 Z" fill="#6c63ff" fill-rule="nonzero" group-id="1" node-id="371" stroke="none" target-height="96" target-width="19.390015" target-x="561" target-y="558.4"></path><path d="M 820.24 218.15 L 982.16 218.15 L 982.16 376.02 L 820.24 376.02 Z" fill="#ffffff" fill-rule="nonzero" group-id="1" node-id="373" stroke="none" target-height="157.87003" target-width="161.91992" target-x="820.24" target-y="218.15"></path><path d="M 820.24 218.15 L 982.11 218.15 L 982.11 237.76 L 820.24 237.76 Z" fill="#5d81ec" fill-rule="nonzero" group-id="1" node-id="375" stroke="none" target-height="19.61" target-width="161.87" target-x="820.24" target-y="218.15"></path><path d="M 833.85 226.32 C 833.85 227.98 832.51 229.32 830.85 229.32 C 829.19 229.32 827.85 227.98 827.85 226.32 C 827.85 224.66 829.19 223.32 830.85 223.32 C 832.51 223.32 833.85 224.66 833.85 226.32 Z" fill="#ffffff" fill-rule="nonzero" group-id="1" node-id="377" stroke="none" target-height="6" target-width="5.999939" target-x="827.85004" target-y="223.32"></path><path d="M 847.85 226.32 C 847.85 227.98 846.51 229.32 844.85 229.32 C 843.19 229.32 841.85 227.98 841.85 226.32 C 841.85 224.66 843.19 223.32 844.85 223.32 C 846.51 223.32 847.85 224.66 847.85 226.32 Z" fill="#ffffff" fill-rule="nonzero" group-id="1" node-id="379" stroke="none" target-height="6" target-width="6" target-x="841.85" target-y="223.32"></path><path d="M 861.84 226.32 C 861.84 227.98 860.50 229.32 858.84 229.32 C 857.18 229.32 855.84 227.98 855.84 226.32 C 855.84 224.66 857.18 223.32 858.84 223.32 C 860.50 223.32 861.84 224.66 861.84 226.32 Z" fill="#ffffff" fill-rule="nonzero" group-id="1" node-id="381" stroke="none" target-height="6" target-width="6" target-x="855.84" target-y="223.32"></path><path d="M 883.98 256.99 L 966.20 256.99 L 966.20 262.63 L 883.98 262.63 Z" fill="#e1edff" fill-rule="nonzero" group-id="1" node-id="383" stroke="none" target-height="5.6400146" target-width="82.21997" target-x="883.98" target-y="256.99"></path><path d="M 883.98 268.90 L 966.20 268.90 L 966.20 274.54 L 883.98 274.54 Z" fill="#e1edff" fill-rule="nonzero" group-id="1" node-id="385" stroke="none" target-height="5.6400146" target-width="82.21997" target-x="883.98" target-y="268.9"></path><path d="M 883.98 282.05 L 937.39 282.05 L 937.39 287.69 L 883.98 287.69 Z" fill="#77a3e8" fill-rule="nonzero" group-id="1" node-id="387" stroke="none" target-height="5.6400146" target-width="53.409912" target-x="883.98" target-y="282.05"></path><path d="M 883.98 302.73 L 964.95 302.73 L 964.95 308.37 L 883.98 308.37 Z" fill="#e1edff" fill-rule="nonzero" group-id="1" node-id="389" stroke="none" target-height="5.6400146" target-width="80.96997" target-x="883.98" target-y="302.73"></path><path d="M 883.98 315.26 L 964.95 315.26 L 964.95 320.90 L 883.98 320.90 Z" fill="#77a3e8" fill-rule="nonzero" group-id="1" node-id="391" stroke="none" target-height="5.6400146" target-width="80.96997" target-x="883.98" target-y="315.26"></path><path d="M 883.98 330.29 L 964.95 330.29 L 964.95 335.93 L 883.98 335.93 Z" fill="#e1edff" fill-rule="nonzero" group-id="1" node-id="393" stroke="none" target-height="5.6400146" target-width="80.96997" target-x="883.98" target-y="330.29"></path><path d="M 883.98 347.83 L 964.95 347.83 L 964.95 353.47 L 883.98 353.47 Z" fill="#77a3e8" fill-rule="nonzero" group-id="1" node-id="395" stroke="none" target-height="5.6400146" target-width="80.96997" target-x="883.98" target-y="347.83"></path><path d="M 849.84 285.81 L 872.24 285.81 L 872.24 291.45 L 849.84 291.45 Z" fill="#e1edff" fill-rule="nonzero" group-id="1" node-id="397" stroke="none" target-height="5.6400146" target-width="22.400085" target-x="849.84" target-y="285.81"></path><path d="M 849.84 268.90 L 872.24 268.90 L 872.24 274.54 L 849.84 274.54 Z" fill="#77a3e8" fill-rule="nonzero" group-id="1" node-id="399" stroke="none" target-height="5.6400146" target-width="22.400085" target-x="849.84" target-y="268.9"></path><path d="M 828.54 256.99 L 872.24 256.99 L 872.24 262.63 L 828.54 262.63 Z" fill="#e1edff" fill-rule="nonzero" group-id="1" node-id="401" stroke="none" target-height="5.6400146" target-width="43.700073" target-x="828.5399" target-y="256.99"></path><path d="M 833.00 298.34 L 872.23 298.34 L 872.23 303.98 L 833.00 303.98 Z" fill="#77a3e8" fill-rule="nonzero" group-id="1" node-id="403" stroke="none" target-height="5.6400146" target-width="39.22998" target-x="833" target-y="298.34"></path><path d="M 854.31 312.75 L 872.24 312.75 L 872.24 318.39 L 854.31 318.39 Z" fill="#e1edff" fill-rule="nonzero" group-id="1" node-id="405" stroke="none" target-height="5.6400146" target-width="17.929993" target-x="854.31" target-y="312.75"></path><path d="M 841.34 327.16 L 872.23 327.16 L 872.23 332.80 L 841.34 332.80 Z" fill="#77a3e8" fill-rule="nonzero" group-id="1" node-id="407" stroke="none" target-height="5.6400146" target-width="30.889954" target-x="841.34" target-y="327.16"></path><path d="M 847.61 350.97 L 872.24 350.97 L 872.24 356.61 L 847.61 356.61 Z" fill="#e1edff" fill-rule="nonzero" group-id="1" node-id="409" stroke="none" target-height="5.639984" target-width="24.629944" target-x="847.61005" target-y="350.97003"></path><g node-id="458"><path d="M 956.73 357.64 C 936.18 349.26 918.12 336.46 901.11 322.35 C 869.68 296.27 842.40 260.27 840.56 218.15 L 820.24 218.15 L 820.24 376.00 L 982.16 376.00 L 982.16 365.22 C 973.47 363.46 964.96 360.92 956.73 357.64 Z" fill="#b8d0ff" fill-opacity="0.4" fill-rule="nonzero" group-id="1,9" node-id="413" stroke="none" target-height="157.85" target-width="161.91992" target-x="820.24" target-y="218.15"></path></g><path d="M 281.13 684.50 C 295.65 663.43 292.16 634.84 273.01 617.88 C 253.85 600.91 225.05 600.91 205.89 617.88 C 186.74 634.84 183.25 663.43 197.77 684.50 C 197.77 684.50 201.12 688.70 202.48 690.31 C 216.13 706.59 217.68 721.19 220.91 737.60 L 258.00 737.60 C 261.24 721.19 262.79 706.60 276.44 690.31 C 277.78 688.70 281.18 684.50 281.13 684.50 Z" fill="#ffbf00" fill-rule="nonzero" group-id="1" node-id="416" stroke="none" target-height="136.6864" target-width="112.40073" target-x="183.24963" target-y="600.9136"></path><path d="M 246.32 768.36 L 232.58 768.36 L 223.49 762.50 L 255.40 762.50 L 246.32 768.36 Z" fill="#203c79" fill-rule="nonzero" group-id="1" node-id="418" stroke="none" target-height="5.8599854" target-width="31.909988" target-x="223.49" target-y="762.5"></path><path d="M 255.40 742.51 L 223.49 742.51 L 220.91 737.60 L 257.99 737.60 L 255.40 742.51 Z" fill="#bdd6ff" fill-rule="nonzero" group-id="1" node-id="420" stroke="none" target-height="4.910034" target-width="37.079987" target-x="220.91" target-y="737.6"></path><path d="M 223.49 742.51 L 255.39 742.51 L 255.39 762.50 L 223.49 762.50 Z" fill="#203c79" fill-rule="nonzero" group-id="1" node-id="422" stroke="none" target-height="19.98999" target-width="31.899994" target-x="223.49" target-y="742.51"></path><path d="M 222.92 746.90 C 228.51 746.14 234.13 745.71 239.77 745.40 C 245.41 745.09 251.07 744.92 256.77 745.12 C 257.49 745.12 258.04 745.63 258.00 746.18 C 257.90 746.70 257.47 747.08 256.94 747.12 C 251.35 747.94 245.72 748.34 240.08 748.64 C 234.44 748.94 228.80 749.07 223.08 748.90 C 222.35 748.90 221.80 748.41 221.83 747.90 C 221.89 747.34 222.36 746.91 222.92 746.90 Z" fill="#345a91" fill-rule="nonzero" group-id="1" node-id="424" stroke="none" target-height="4.1499634" target-width="36.240005" target-x="221.8" target-y="744.92004"></path><path d="M 222.45 752.38 C 228.05 751.62 233.67 751.20 239.31 750.87 C 244.95 750.54 250.59 750.40 256.31 750.61 C 257.03 750.61 257.58 751.11 257.54 751.67 C 257.45 752.19 257.01 752.58 256.48 752.60 C 250.89 753.41 245.26 753.82 239.62 754.11 C 233.98 754.40 228.34 754.55 222.62 754.38 C 221.89 754.38 221.34 753.89 221.37 753.38 C 221.43 752.83 221.89 752.40 222.45 752.38 Z" fill="#345a91" fill-rule="nonzero" group-id="1" node-id="426" stroke="none" target-height="4.1499023" target-width="36.23999" target-x="221.34" target-y="750.4001"></path><path d="M 222.00 757.86 C 227.59 757.10 233.21 756.68 238.85 756.36 C 244.49 756.04 250.14 755.88 255.85 756.09 C 256.49 756.05 257.04 756.53 257.09 757.16 C 256.99 757.68 256.56 758.06 256.03 758.09 C 250.44 758.90 244.80 759.30 239.16 759.60 C 233.52 759.90 227.88 760.04 222.16 759.86 C 221.43 759.86 220.88 759.37 220.91 758.86 C 220.99 758.31 221.44 757.89 222.00 757.86 Z" fill="#345a91" fill-rule="nonzero" group-id="1" node-id="428" stroke="none" target-height="4.159973" target-width="36.210007" target-x="220.87999" target-y="755.88"></path><path d="M 239.34 596.59 C 236.74 596.59 234.63 594.48 234.63 591.88 L 234.63 566.53 C 234.63 563.93 236.74 561.82 239.34 561.82 C 241.94 561.82 244.05 563.93 244.05 566.53 L 244.05 591.88 C 244.05 594.48 241.94 596.59 239.34 596.59 Z" fill="#ff9700" fill-rule="nonzero" group-id="1" node-id="430" stroke="none" target-height="34.77002" target-width="9.419998" target-x="234.63" target-y="561.82"></path><path d="M 194.51 614.14 C 193.26 614.14 192.06 613.65 191.18 612.76 L 173.25 594.83 C 172.03 593.65 171.54 591.90 171.97 590.25 C 172.40 588.60 173.68 587.32 175.33 586.89 C 176.98 586.46 178.73 586.95 179.91 588.17 L 197.84 606.10 C 199.16 607.45 199.54 609.46 198.82 611.20 C 198.09 612.94 196.40 614.08 194.51 614.10 Z" fill="#ff9700" fill-rule="nonzero" group-id="1" node-id="432" stroke="none" target-height="27.685547" target-width="28.006943" target-x="171.5364" target-y="586.4564"></path><path d="M 149.86 658.25 C 148.13 658.33 146.49 657.45 145.60 655.96 C 144.71 654.47 144.71 652.62 145.60 651.13 C 146.49 649.64 148.13 648.76 149.86 648.84 L 175.22 648.84 C 177.82 648.84 179.93 650.95 179.93 653.55 C 179.93 656.15 177.82 658.26 175.22 658.26 Z" fill="#ff9700" fill-rule="nonzero" group-id="1" node-id="434" stroke="none" target-height="9.569824" target-width="35.21953" target-x="144.71048" target-y="648.7601"></path><path d="M 174.84 721.00 C 172.95 720.98 171.26 719.84 170.53 718.10 C 169.81 716.36 170.19 714.35 171.51 713.00 L 189.44 695.00 C 191.29 693.21 194.23 693.24 196.04 695.06 C 197.86 696.87 197.89 699.81 196.10 701.66 L 178.17 719.59 C 177.29 720.49 176.09 720.99 174.84 721.00 Z" fill="#ff9700" fill-rule="nonzero" group-id="1" node-id="436" stroke="none" target-height="27.786682" target-width="28.079926" target-x="169.80666" target-y="693.2133"></path><path d="M 299.64 722.76 C 298.39 722.76 297.19 722.26 296.31 721.38 L 278.38 703.45 C 276.59 701.60 276.62 698.66 278.44 696.85 C 280.25 695.03 283.19 695.00 285.04 696.79 L 303.00 714.72 C 304.32 716.07 304.70 718.08 303.98 719.82 C 303.25 721.56 301.56 722.70 299.67 722.72 Z" fill="#ff9700" fill-rule="nonzero" group-id="1" node-id="438" stroke="none" target-height="27.757446" target-width="28.109955" target-x="276.59338" target-y="695.00336"></path><path d="M 301.00 660.71 C 299.27 660.79 297.63 659.91 296.74 658.42 C 295.85 656.93 295.85 655.08 296.74 653.59 C 297.63 652.10 299.27 651.22 301.00 651.30 L 326.36 651.30 C 328.96 651.30 331.07 653.41 331.07 656.01 C 331.07 658.61 328.96 660.72 326.36 660.72 Z" fill="#ff9700" fill-rule="nonzero" group-id="1" node-id="440" stroke="none" target-height="9.569824" target-width="35.219543" target-x="295.85046" target-y="651.2201"></path><path d="M 283.46 615.88 C 281.57 615.87 279.87 614.73 279.14 612.98 C 278.42 611.24 278.80 609.23 280.12 607.88 L 298.05 589.95 C 299.22 588.68 300.99 588.14 302.67 588.57 C 304.35 588.99 305.66 590.30 306.09 591.98 C 306.51 593.65 305.98 595.43 304.71 596.60 L 286.79 614.54 C 285.90 615.41 284.70 615.89 283.46 615.88 Z" fill="#ff9700" fill-rule="nonzero" group-id="1" node-id="442" stroke="none" target-height="27.74408" target-width="28.095306" target-x="278.4161" target-y="588.14417"></path><path d="M 173.84 574.87 C 168.84 590.47 159.16 614.99 159.84 626.42 C 160.24 632.30 161.83 638.03 164.53 643.27 C 171.82 657.92 182.17 663.05 192.43 675.82 C 195.22 672.22 193.50 674.42 197.31 671.91 C 189.93 659.17 166.31 628.36 183.53 602.27 C 197.09 581.66 195.43 579.02 198.30 564.92 C 198.93 561.86 198.77 555.03 196.84 552.56 C 194.91 550.09 182.73 547.21 173.84 574.87" fill="#ffcdab" fill-rule="nonzero" group-id="1" node-id="444" stroke="none" target-height="128.60999" target-width="39.770004" target-x="159.16" target-y="547.21"></path><path d="M 191.83 674.46 C 192.97 678.54 194.59 682.47 196.67 686.16 C 197.37 687.31 198.07 688.95 199.41 689.06 C 200.02 688.26 199.41 688.15 198.59 686.55 C 198.13 685.66 197.37 684.55 197.50 683.55 C 199.27 686.92 201.99 689.70 205.32 691.55 C 205.59 690.92 205.49 690.18 205.05 689.65 C 204.61 689.13 204.12 688.67 203.58 688.26 C 202.27 687.12 201.27 685.65 200.70 684.00 C 202.70 686.64 205.04 689.44 208.29 690.16 C 208.61 689.71 208.61 689.11 208.29 688.66 C 207.96 688.24 207.56 687.88 207.11 687.58 C 205.51 686.37 204.20 684.82 203.28 683.03 C 205.24 685.29 207.71 687.04 210.48 688.15 C 211.05 687.37 210.13 686.38 209.37 685.78 C 207.44 684.34 205.88 682.47 204.80 680.32 C 204.67 680.02 203.80 678.53 203.97 678.32 C 204.14 678.11 207.21 678.49 208.33 678.40 C 209.45 678.31 210.43 677.59 210.33 676.61 C 205.11 675.70 199.40 674.53 196.12 670.38 C 194.80 671.86 193.37 673.24 191.84 674.51" fill="#ffcdab" fill-rule="nonzero" group-id="1" node-id="446" stroke="none" target-height="21.169983" target-width="19.220001" target-x="191.83" target-y="670.38"></path><path d="M 201.29 540.29 C 196.62 540.14 192.05 541.66 188.40 544.57 C 186.28 546.38 184.41 548.47 182.85 550.78 C 175.38 561.28 170.81 573.57 169.61 586.40 C 177.37 589.16 185.43 591.03 193.61 591.97 C 194.21 592.12 194.85 592.02 195.38 591.69 C 195.72 591.35 195.94 590.91 196.02 590.44 C 199.61 577.01 202.03 563.29 203.23 549.44 C 203.47 546.72 203.64 543.87 202.57 541.35 C 202.14 540.35 200.32 539.60 201.24 540.29" fill="#ebf3ff" fill-rule="nonzero" group-id="1" node-id="448" stroke="none" target-height="52.516357" target-width="34.03" target-x="169.61" target-y="539.6"></path></g></svg>