<?xml version="1.0" standalone="no"?><!DOCTYPE svg PUBLIC "-//W3C//DTD SVG 1.1//EN" "http://www.w3.org/Graphics/SVG/1.1/DTD/svg11.dtd"><svg t="1763233817028" class="icon" viewBox="0 0 1024 1024" version="1.1" xmlns="http://www.w3.org/2000/svg" p-id="1040" xmlns:xlink="http://www.w3.org/1999/xlink" width="200" height="200"><path d="M475.44 442.07h80.64c16.63 0 30.9 11.85 33.96 28.19l71.16 380.07c3.51 18.76-8.85 36.81-27.6 40.32-2.1 0.39-4.23 0.59-6.36 0.59H399.97c-19.08 0-34.55-15.47-34.55-34.55 0-2.26 0.22-4.51 0.66-6.73l75.46-380.07c3.22-16.17 17.41-27.82 33.9-27.82z" fill="#92DEF5" p-id="1041"></path><path d="M202.4 113.82h621.94c57.25 0 103.66 46.41 103.66 103.66V563c0 57.25-46.41 103.66-103.66 103.66H202.4c-57.25 0-103.66-46.41-103.66-103.66V217.48c0.01-57.25 46.42-103.66 103.66-103.66zM323.34 839.41h380.07c9.54 0 17.28 7.73 17.28 17.28v34.55c0 9.54-7.73 17.28-17.28 17.28H323.34c-9.54 0-17.28-7.73-17.28-17.28v-34.55c0-9.54 7.73-17.28 17.28-17.28z" fill="#4B83FA" p-id="1042"></path><path d="M503.26 234.97v165.62l165.62-0.02c0 89.76-71.38 162.84-160.46 165.56l-5.16 0.08c-91.47 0-165.62-74.15-165.62-165.62s74.15-165.62 165.62-165.62z" fill="#CAEFFF" p-id="1043"></path><path d="M523.96 214.27c91.47 0 165.62 74.15 165.62 165.62l-0.02-0.93-165.6 0.01v-164.7z" fill="#FFFFFF" p-id="1044"></path></svg>